<svg xmlns="http://www.w3.org/2000/svg" width="128" height="80" viewBox="0 0 128 80" fill="none">
  <path d="M126.598 37.3779C100.791 33.6433 39.7424 21.6923 2.00021 3.76587" stroke="url(#paint0_linear_753_2254)" stroke-width="6.4023"/>
  <path d="M126.598 49.9826C100.791 46.2479 38.2908 49.9826 2.00021 61.1865" stroke="url(#paint1_linear_753_2254)" stroke-width="6.4023"/>
  <path d="M126.598 43.7803C126.598 42.8963 125.881 42.1797 124.997 42.1797H117.702C115.934 42.1797 114.501 43.6129 114.501 45.3808V53.3837C114.501 55.1517 115.934 56.5849 117.702 56.5849H124.997C125.881 56.5849 126.598 55.8683 126.598 54.9843V43.7803Z" fill="#124C58"/>
  <path d="M125.797 43.7803C125.797 43.3383 125.439 42.98 124.997 42.98H117.702C116.376 42.98 115.301 44.0549 115.301 45.3808V53.3837C115.301 54.7097 116.376 55.7846 117.702 55.7846H124.997C125.439 55.7846 125.797 55.4263 125.797 54.9843V43.7803Z" stroke="white" stroke-opacity="0.04" stroke-width="1.60057"/>
  <path d="M126.598 29.3752C126.598 28.4913 125.881 27.7747 124.997 27.7747H117.702C115.934 27.7747 114.501 29.2079 114.501 30.9758V38.9787C114.501 40.7466 115.934 42.1798 117.702 42.1798H124.997C125.881 42.1798 126.598 41.4632 126.598 40.5793V29.3752Z" fill="#124C58"/>
  <path d="M124.997 28.5749H117.702C116.376 28.5749 115.301 29.6498 115.301 30.9758V38.9787C115.301 40.3046 116.376 41.3795 117.702 41.3795H124.997C125.439 41.3795 125.797 41.0212 125.797 40.5793V29.3752C125.797 28.9332 125.439 28.5749 124.997 28.5749Z" stroke="white" stroke-opacity="0.04" stroke-width="1.60057"/>
  <defs>
    <linearGradient id="paint0_linear_753_2254" x1="72.1619" y1="14.1696" x2="68.8306" y2="30.9547" gradientUnits="userSpaceOnUse">
      <stop stop-color="#666666"/>
      <stop offset="1" stop-color="#101010"/>
    </linearGradient>
    <linearGradient id="paint1_linear_753_2254" x1="72.162" y1="41.3794" x2="72.6929" y2="52.6155" gradientUnits="userSpaceOnUse">
      <stop stop-color="#666666"/>
      <stop offset="1" stop-color="#101010"/>
    </linearGradient>
  </defs>
</svg>