<svg xmlns="http://www.w3.org/2000/svg" width="108" height="52" viewBox="0 0 108 52" fill="none">
  <path d="M0.80481 37.3779C22.5953 33.6433 74.1433 21.6923 106.012 3.76587" stroke="url(#paint0_linear_753_2256)" stroke-width="6.4023"/>
  <path d="M0.80481 22.7726C22.5953 19.0379 75.369 22.7727 106.012 33.9765" stroke="url(#paint1_linear_753_2256)" stroke-width="6.4023"/>
  <path d="M0.80481 29.375C0.80481 28.491 1.52141 27.7744 2.40538 27.7744H7.81793C9.58588 27.7744 11.0191 29.2076 11.0191 30.9756V38.9784C11.0191 40.7464 9.58588 42.1796 7.81794 42.1796H2.40539C1.52141 42.1796 0.80481 41.463 0.80481 40.579V29.375Z" fill="#124C58"/>
  <path d="M1.6051 29.375C1.6051 28.933 1.9634 28.5747 2.40538 28.5747H7.81793C9.14389 28.5747 10.2188 29.6496 10.2188 30.9756V38.9784C10.2188 40.3044 9.1439 41.3793 7.81794 41.3793H2.40539C1.9634 41.3793 1.6051 41.021 1.6051 40.579V29.375Z" stroke="white" stroke-opacity="0.04" stroke-width="1.60057"/>
  <path d="M0.80481 14.97C0.80481 14.086 1.52141 13.3694 2.40538 13.3694H7.81793C9.58588 13.3694 11.0191 14.8026 11.0191 16.5705V24.5734C11.0191 26.3414 9.58588 27.7746 7.81794 27.7746H2.40539C1.52141 27.7746 0.80481 27.058 0.80481 26.174V14.97Z" fill="#124C58"/>
  <path d="M1.6051 14.97C1.6051 14.528 1.9634 14.1697 2.40538 14.1697H7.81793C9.14389 14.1697 10.2188 15.2446 10.2188 16.5705V24.5734C10.2188 25.8994 9.1439 26.9743 7.81794 26.9743H2.40539C1.9634 26.9743 1.6051 26.616 1.6051 26.174V14.97Z" stroke="white" stroke-opacity="0.04" stroke-width="1.60057"/>
  <defs>
    <linearGradient id="paint0_linear_753_2256" x1="48.8119" y1="22.1725" x2="50.0892" y2="29.5084" gradientUnits="userSpaceOnUse">
      <stop stop-color="#666666"/>
      <stop offset="1" stop-color="#101010"/>
    </linearGradient>
    <linearGradient id="paint1_linear_753_2256" x1="45.7476" y1="10.168" x2="45.1201" y2="27.7884" gradientUnits="userSpaceOnUse">
      <stop stop-color="#666666"/>
      <stop offset="1" stop-color="#101010"/>
    </linearGradient>
  </defs>
</svg>